<svg xmlns="http://www.w3.org/2000/svg" version="1.1" xmlns:xlink="http://www.w3.org/1999/xlink" xmlns:svgjs="http://svgjs.dev/svgjs" width="1000" height="1000" viewBox="0 0 1000 1000"><rect width="1000" height="1000" fill="#ffffff"></rect><g transform="matrix(0.7,0,0,0.7,149.90044910179654,149.90044910179637)"><svg viewBox="0 0 334 334" data-background-color="#ffffff" preserveAspectRatio="xMidYMid meet" height="1000" width="1000" xmlns="http://www.w3.org/2000/svg" xmlns:xlink="http://www.w3.org/1999/xlink"><g id="tight-bounds" transform="matrix(1,0,0,1,0.04749999999998522,0.04750000000001364)"><svg viewBox="0 0 333.90454557049503 333.90454557049503" height="333.90454557049503" width="333.90454557049503"><g><svg></svg></g><g><svg viewBox="0 0 333.90454557049503 333.90454557049503" height="333.90454557049503" width="333.90454557049503"><g><path d="M0 166.952c0-92.205 74.747-166.952 166.952-166.952 92.205 0 166.952 74.747 166.953 166.952 0 92.205-74.747 166.952-166.953 166.953-92.205 0-166.952-74.747-166.952-166.953zM166.952 329.143c89.576 0 162.191-72.615 162.191-162.191 0-89.576-72.615-162.191-162.191-162.191-89.576 0-162.191 72.615-162.191 162.191 0 89.576 72.615 162.191 162.191 162.191z" data-fill-palette-color="tertiary" fill="#4790fc" stroke="transparent"></path><ellipse rx="160.27418187383762" ry="160.27418187383762" cx="166.95227278524752" cy="166.95227278524752" fill="#4790fc" stroke="transparent" stroke-width="0" fill-opacity="1" data-fill-palette-color="tertiary"></ellipse></g><g transform="matrix(1,0,0,1,101.2550371099174,71.17305217166896)"><svg viewBox="0 0 131.39447135066024 191.55844122715712" height="191.55844122715712" width="131.39447135066024"><g><svg viewBox="0 0 131.39447135066024 191.55844122715712" height="191.55844122715712" width="131.39447135066024"><g><svg viewBox="0 0 213.1584412271571 310.7611630546708" height="191.55844122715712" width="131.39447135066024"><g transform="matrix(1,0,0,1,0,151.95269888347082)"><svg viewBox="0 0 213.1584412271571 158.8084641712" height="158.8084641712" width="213.1584412271571"><g id="textblocktransform"><svg viewBox="0 0 213.1584412271571 158.8084641712" height="158.8084641712" width="213.1584412271571" id="textblock"><g><svg viewBox="0 0 213.1584412271571 85.65369713603974" height="85.65369713603974" width="213.1584412271571"><g transform="matrix(1,0,0,1,0,0)"><svg width="213.1584412271571" viewBox="2.450000047683716 -38.400001525878906 98.29000091552734 39.5" height="85.65369713603974" data-palette-color="#ffffff"><path d="M5.75 1.1Q4.85 1.1 4.38 1.03 3.9 0.95 3.35 0.7L3.35 0.7Q2.75 0.4 2.45-0.15L2.45-0.15Q2.45-0.75 3-0.75L3-0.75Q3.55-0.75 4.4-0.4L4.4-0.4Q5.2 0 5.75 0L5.75 0Q6.85 0 7.78-0.9 8.7-1.8 9.2-3.25L9.2-3.25Q10.2-6.1 10.2-8.3L10.2-8.3Q10.2-10.75 9.5-13.25 8.8-15.75 7.65-17.95L7.65-17.95Q7.4-18.5 6.8-19.6L6.8-19.6Q5.55-22.1 4.9-23.5 4.25-24.9 3.75-26.6L3.75-26.6Q3.05-28.85 3.05-31.45L3.05-31.45Q3.05-33.1 3.58-34.63 4.1-36.15 5.25-37.25L5.25-37.25Q6.5-38.4 8.05-38.4L8.05-38.4Q8.65-38.4 9.5-37.93 10.35-37.45 10.35-37L10.35-37Q10.35-36.6 10.05-36.6L10.05-36.6Q9.75-36.6 9.25-36.85L9.25-36.85Q8.8-37.1 8.4-37.1L8.4-37.1Q7.25-37.1 6.38-36.25 5.5-35.4 5.1-34.15L5.1-34.15Q4.75-33.1 4.75-31.85L4.75-31.85Q4.75-29.9 5.25-27.83 5.75-25.75 6.6-23.95L6.6-23.95 8.35-20.3 8.85-19.25Q9.9-17.1 10.48-15.7 11.05-14.3 11.45-12.55L11.45-12.55Q12-10.2 12-8.05L12-8.05Q12-5.15 10.5-2.15L10.5-2.15Q9.75-0.7 8.5 0.2 7.25 1.1 5.75 1.1L5.75 1.1ZM29.7 0.9Q28.5 0.9 26.85-3.6L26.85-3.6Q25.3-7.75 24.15-12.6 23-17.45 22.9-19.4L22.9-19.4 22.75-19.6 22-18Q21.45-16.95 21.17-16.28 20.9-15.6 20.65-14.6L20.65-14.6Q20.35-13.65 20.35-12.65L20.35-12.65Q20.35-11.65 20.25-10.85L20.25-10.85 20.15-9.05 20.15-2.65Q20.15-2.2 20.3-1.2L20.3-1.2Q20.45-0.3 20.45 0.2L20.45 0.2Q20.45 0.45 20.2 0.63 19.95 0.8 19.65 0.8L19.65 0.8Q19 0.8 18.77 0.6 18.55 0.4 18.55-0.25L18.55-0.25 18.55-9.65Q18.55-10.45 18.8-12.8L18.8-12.8Q19.05-15.15 19.05-15.95L19.05-15.95Q19.05-18.05 19.3-20.8L19.3-20.8Q19.5-23.6 19.5-25.6L19.5-25.6 19.5-32.55Q19.8-33.1 20.45-33.1L20.45-33.1Q20.85-33.1 21.12-32.83 21.4-32.55 21.4-32.15L21.4-32.15Q21-31.25 21-29.75L21-29.75 20.9-24.5Q20.8-22.1 20.8-19.2L20.8-19.2Q21.3-19.35 24.7-26.1L24.7-26.1Q28.1-32.8 28.45-32.8L28.45-32.8Q29.75-32.8 29.75-31.95L29.75-31.95Q26.55-27.2 24.45-22.7L24.45-22.7 24.4-21.1Q24.35-20.4 24.35-19.5L24.35-19.5Q24.35-17.3 26.05-11.25 27.75-5.2 28.95-2.85L28.95-2.85Q29.5-2.1 29.6-2L29.6-2Q30.1-1.3 30.32-0.83 30.55-0.35 30.55 0.15L30.55 0.15Q30.55 0.5 30.3 0.7 30.05 0.9 29.7 0.9L29.7 0.9ZM38.55 0.75Q38.39 0.75 38.14 0.55 37.89 0.35 37.84 0.2L37.84 0.2Q38.3-1 38.3-8.55L38.3-8.55Q38.3-10 38.14-12.7L38.14-12.7 37.89-16.25 37.59-16.9 37.74-17.5Q37.45-18.2 36.84-19.85 36.24-21.5 35.64-23.2L35.64-23.2Q33.84-27.95 33.3-30.05L33.3-30.05Q32.99-31.05 32.84-31.9L32.84-31.9 33.55-32.45Q34.05-32.35 34.99-29.25L34.99-29.25Q35.74-27.05 36.34-24.9L36.34-24.9 36.95-23Q37.84-19.9 38.24-19.8L38.24-19.8 38.45-20.7 38.34-20.95Q38.74-21.45 39.34-24.5L39.34-24.5Q39.99-28 40.59-30.4L40.59-30.4Q41.25-33.2 41.89-33.2L41.89-33.2Q42.14-33.2 42.34-33.05 42.55-32.9 42.55-32.7L42.55-32.7Q42.55-31.95 41.05-26.8L41.05-26.8Q40.3-24.35 39.8-22.2L39.8-22.2Q39.2-19.65 39.2-17.65L39.2-17.65Q39.45-17.15 39.45-16.8L39.45-16.8Q39.45-16.55 39.3-16.1L39.3-16.1Q39.14-15.65 39.14-15.35L39.14-15.35Q39.14-15.1 39.34-13.1L39.34-13.1Q39.55-11.75 39.55-10.8L39.55-10.8Q39.55-8.6 39.59-6.85L39.59-6.85 39.59-2.85 39.59-2.65Q39.59 0.75 38.55 0.75L38.55 0.75ZM49.39 0.55Q48.99 0.55 48.72 0.25 48.44-0.05 48.44-0.5L48.44-0.5 48.39-2.05Q48.39-3.85 48.69-7.35L48.69-7.35Q48.94-11.25 48.94-12.6L48.94-12.6 48.89-14.85Q48.84-15.85 48.84-17.05L48.84-17.05Q48.84-19.05 48.99-23L48.99-23Q49.14-27.05 49.14-29L49.14-29 49.09-31.9 48.89-32.15 48.89-32.45Q48.89-33.75 49.94-33.75L49.94-33.75Q50.74-33.75 52.57-33.13 54.39-32.5 54.39-32.1L54.39-32.1 54.39-31.95Q55.29-30.5 55.62-29.05 55.94-27.6 55.94-25.35L55.94-25.35Q55.94-21.7 55.14-19.4L55.14-19.4 55.19-19.4Q54.99-19 54.39-18.1L54.39-18.1 53.69-17.05Q54.59-16.35 55.22-15 55.84-13.65 55.99-12.4L55.99-12.4Q56.04-11.95 56.09-11.3 56.14-10.65 56.19-9.75L56.19-9.75 56.24-8.45 56.24-7.75Q56.24-2.95 53.24-0.65L53.24-0.65Q51.69 0.55 49.39 0.55L49.39 0.55ZM50.54-18.05L50.94-18.05Q54.24-18.05 54.24-24.7L54.24-24.7Q54.24-25.25 54.14-26.85L54.14-26.85 54.09-27.8 53.99-27.9Q53.79-29.55 53.44-30.5L53.44-30.5Q53.19-31.2 52.64-31.63 52.09-32.05 51.44-32.05L51.44-32.05Q50.34-32.05 50.34-25.5L50.34-25.5Q50.34-24.25 50.39-23.8L50.39-23.8 50.39-22.8 50.39-21.1Q50.34-20.3 50.34-19.3L50.34-19.3 50.34-18.7Q50.34-18.7 50.44-18.4L50.44-18.4 50.54-18.05ZM50.19-1.4Q51.39-1.4 52.42-2.2 53.44-3 54.04-4.28 54.64-5.55 54.64-6.8L54.64-6.8 54.69-7 54.69-7.4 54.69-7.95Q54.69-10.05 54.34-11.95L54.34-11.95Q53.79-14.5 52.39-15.65L52.39-15.65Q51.59-16.3 50.49-16.3L50.49-16.3Q50.24-12.15 50.24-9.5L50.24-9.5 50.24-8.35Q50.24-6.9 50.39-6.05L50.39-6.05Q50.14-5.6 50.14-3.65L50.14-3.65 50.14-2.35 50.19-1.4ZM63.64 0.65Q62.94 0.65 62.79-0.5L62.79-0.5Q62.89-0.8 62.89-2.15L62.89-2.15Q62.89-6.75 63.04-15.8L63.04-15.8Q63.19-24.8 63.19-28.8L63.19-28.8 63.29-30.6 63.44-32.1Q63.44-32.45 63.79-32.45L63.79-32.45Q64.04-32.45 64.49-32.3L64.49-32.3 64.64-32.25Q64.64-31.15 64.59-30.25L64.59-30.25 64.59-28.3 64.59-22.85Q64.64-20.45 64.64-17.4L64.64-17.4Q64.59-17.15 64.59-16.3L64.59-16.3 64.54-15.25Q64.49-14.25 64.49-13.2L64.49-13.2Q64.49-12.05 64.54-11.1L64.54-11.1 64.59-8.95 64.44-8.55 64.49-8.6Q64.49-8.45 64.44-8.4L64.44-8.4 64.44-8.2Q64.44-7.8 64.59-7.5L64.59-7.5 64.44-2.7 64.44-2.4Q64.44-1.55 64.49-1.4L64.49-1.4Q64.49-1.15 64.74-1.15L64.74-1.15 67.34-1.05Q68.49-1.05 68.92-1.03 69.34-1 69.44-1L69.44-1 69.59-1Q69.84-1 70.09-0.73 70.34-0.45 70.34-0.15L70.34-0.15Q70.34 0.45 69.54 0.5L69.54 0.5Q68.69 0.45 65.39 0.45L65.39 0.45 65.49 0.5Q64.99 0.5 64.54 0.55L64.54 0.55Q64.14 0.65 63.64 0.65L63.64 0.65ZM80.44 0.75Q79.64 0.75 78.71 0.23 77.79-0.3 77.19-1L77.19-1Q76.49-1.9 76.09-6.05 75.69-10.2 75.59-15.55L75.59-15.55Q75.59-16.75 75.54-17.35L75.54-17.35Q75.44-29.9 75.14-32.2L75.14-32.2 75.44-32.9Q76.59-32.75 76.59-30.15L76.59-30.15 76.74-16.9Q76.74-15.5 76.99-11.6L76.99-11.6Q77.29-8.1 77.29-6.3L77.29-6.3Q77.29-0.6 81.04-0.6L81.04-0.6Q83.34-0.6 83.99-11.1L83.99-11.1 84.04-12.1Q84.39-25.85 84.39-32.45L84.39-32.45 84.34-32.9Q84.29-33.1 84.29-33.35L84.29-33.35Q84.29-33.9 85.14-33.9L85.14-33.9Q85.74-33.9 85.89-33.6L85.89-33.6Q85.99-33.1 85.99-31.85L85.99-31.85Q85.99-28.05 85.69-26.75L85.69-26.75 85.74-26.45Q85.74-25.8 85.59-24.45L85.59-24.45 85.49-22.45 85.49-21.95Q85.54-21.75 85.54-21.45L85.54-21.45Q85.44-20.25 85.44-19.15L85.44-19.15Q85.39-18.8 85.39-18.05L85.39-18.05Q85.29-13.3 85.19-9.8L85.19-9.8Q85.04-5.45 83.99-2.45L83.99-2.45Q82.89 0.75 80.44 0.75L80.44 0.75ZM94.44 0.65Q93.54 0.65 93.44-0.4L93.44-0.4 93.44-1.05Q93.48-1.3 93.48-1.65L93.48-1.65 93.29-1.85Q93.69-2.9 93.69-3.9L93.69-3.9Q93.69-5.05 93.54-7.2L93.54-7.2 93.44-10.5Q93.44-13 93.59-18L93.59-18Q93.79-22.45 93.79-25.55L93.79-25.55 93.69-28.55Q93.59-29.9 93.59-31.55L93.59-31.55Q93.59-32.3 93.94-32.63 94.29-32.95 95.04-32.95L95.04-32.95Q95.54-32.95 95.84-32.65L95.84-32.65Q95.94-32.6 97.29-32.45L97.29-32.45Q98.54-32.3 99.44-32L99.44-32Q100.39-31.7 100.39-31.25L100.39-31.25Q100.39-30.75 99.44-30.25L99.44-30.25Q96.59-31.2 95.39-31.2L95.39-31.2 95.14-30.9Q95.19-30.45 95.19-28.75L95.19-28.75Q95.19-26.6 95.09-24.9L95.09-24.9Q95.04-23.15 95.04-21L95.04-21Q95.04-19.6 95.73-19.6L95.73-19.6 96.54-19.65Q96.94-19.7 97.39-19.7L97.39-19.7Q99.34-19.7 99.34-18.8L99.34-18.8Q99.34-18.25 99.09-17.88 98.84-17.5 98.34-17.5L98.34-17.5Q97.59-17.5 97.19-17.9L97.19-17.9 95.59-18.15 95.34-18.15 95.09-17.9 95.09-17.75Q95.19-16.9 95.19-13.8L95.19-13.8Q95.19-11.85 95.14-10.25L95.14-10.25 95.09-6.7Q95.09-4.75 95.23-2.7L95.23-2.7Q95.29-1.55 95.73-1.18 96.19-0.8 97.39-0.8L97.39-0.8 98.29-0.85Q98.73-0.9 99.29-0.9L99.29-0.9Q100.74-0.9 100.74-0.25L100.74-0.25Q100.74 0.65 98.54 0.65L98.54 0.65 94.44 0.65Z" opacity="1" transform="matrix(1,0,0,1,0,0)" fill="#ffffff" class="wordmark-text-0" data-fill-palette-color="quaternary" id="text-0"></path></svg></g></svg></g><g transform="matrix(1,0,0,1,0,105.87447934112745)"><svg viewBox="0 0 213.1584412271571 52.93398483007256" height="52.93398483007256" width="213.1584412271571"><g transform="matrix(1,0,0,1,0,0)"><svg width="213.1584412271571" viewBox="0.699999988079071 -39.599998474121094 162.27999877929688 40.29999923706055" height="52.93398483007256" data-palette-color="#ffffff"><path d="M20.4 0.7Q10.95 0.7 5.83-4.1 0.7-8.9 0.7-19.45L0.7-19.45Q0.7-39.6 20.3-39.6L20.3-39.6Q25.05-39.6 29.13-38.45 33.2-37.3 35.2-35.9L35.2-35.9 35.2-23.4 23.2-23.4 23.2-27Q23.2-28.9 22.35-29.8 21.5-30.7 19.8-30.7L19.8-30.7Q18.1-30.7 17.25-29.8 16.4-28.9 16.4-27L16.4-27 16.4-11.9Q16.4-10 17.25-9.1 18.1-8.2 19.8-8.2L19.8-8.2Q21.5-8.2 22.35-9.1 23.2-10 23.2-11.9L23.2-11.9 23.2-15.95 35.2-15.95 35.2-3Q33.15-1.6 29.13-0.45 25.1 0.7 20.4 0.7L20.4 0.7ZM55.44 0.05L39.54 0.05 39.54-8.2 41.74-8.2 41.74-30.7 39.54-30.7 39.54-38.9 53.24-38.9 53.24-8.2 55.44-8.2 55.44 0.05ZM72.17-30.55L61.97-30.55 61.97-38.9 72.17-38.9 72.17-30.55ZM75.47 0L59.57 0 59.57-8.2 61.77-8.2 61.77-19.6 59.57-19.6 59.57-27.8 73.27-27.8 73.27-8.2 75.47-8.2 75.47 0ZM110.41-8.2L112.61-8.2 112.61 0 96.81 0 96.81-8.2 98.91-8.2 98.91-16.4Q98.91-18.05 98.21-18.82 97.51-19.6 96.11-19.6L96.11-19.6Q93.11-19.6 93.11-16.4L93.11-16.4 93.11-8.2 95.21-8.2 95.21 0 79.41 0 79.41-8.2 81.61-8.2 81.61-19.6 79.41-19.6 79.41-27.8 93.11-27.8 93.11-23.9Q96.71-28.5 102.11-28.5L102.11-28.5Q106.26-28.5 108.33-25.9 110.41-23.3 110.41-18.75L110.41-18.75 110.41-8.2ZM129.35-30.55L119.15-30.55 119.15-38.9 129.35-38.9 129.35-30.55ZM132.65 0L116.75 0 116.75-8.2 118.95-8.2 118.95-19.6 116.75-19.6 116.75-27.8 130.45-27.8 130.45-8.2 132.65-8.2 132.65 0ZM151.53 0.7Q144.38 0.7 140.38-3.03 136.38-6.75 136.38-13.9L136.38-13.9Q136.38-21.05 140.38-24.78 144.38-28.5 151.48-28.5L151.48-28.5Q154.93-28.5 158.08-27.55 161.23-26.6 162.98-25.4L162.98-25.4 162.98-15.5 154.38-15.5 154.38-16.4Q154.38-18.05 153.68-18.82 152.98-19.6 151.48-19.6L151.48-19.6Q148.58-19.6 148.58-16.4L148.58-16.4 148.58-12.1Q148.58-8.2 153.03-8.2L153.03-8.2Q157.18-8.2 162.68-9.1L162.68-9.1 162.68-1.25Q160.98-0.5 157.91 0.1 154.83 0.7 151.53 0.7L151.53 0.7Z" opacity="1" transform="matrix(1,0,0,1,0,0)" fill="#ffffff" class="slogan-text-1" data-fill-palette-color="quaternary" id="text-1"></path></svg></g></svg></g></svg></g></svg></g><g transform="matrix(1,0,0,1,40.713262274387006,0)"><svg viewBox="0 0 131.7319166783831 131.7319166783831" height="131.7319166783831" width="131.7319166783831"><g><svg xmlns="http://www.w3.org/2000/svg" xmlns:xlink="http://www.w3.org/1999/xlink" version="1.1" x="0" y="0" viewBox="4.5 4.5 91 91" enable-background="new 0 0 100 100" xml:space="preserve" height="131.7319166783831" width="131.7319166783831" class="icon-icon-0" data-fill-palette-color="quaternary" id="icon-0"><g fill="#ffffff" data-fill-palette-color="quaternary"><path d="M54.559 45c0-0.653-0.724-1.406-1.938-2.012L51.5 42.427v5.146l1.121-0.561C53.835 46.406 54.559 45.653 54.559 45z" fill="#ffffff" data-fill-palette-color="quaternary"></path><path d="M47.379 32.988c-1.213 0.606-1.938 1.359-1.938 2.012s0.725 1.406 1.938 2.012l1.121 0.561v-5.146L47.379 32.988z" fill="#ffffff" data-fill-palette-color="quaternary"></path><path d="M52.621 67.013c1.214-0.606 1.938-1.359 1.938-2.013s-0.724-1.406-1.938-2.013L51.5 62.427v5.146L52.621 67.013z" fill="#ffffff" data-fill-palette-color="quaternary"></path><path d="M45.441 55c0 0.653 0.725 1.406 1.938 2.013l1.121 0.561v-5.146l-1.121 0.561C46.166 53.594 45.441 54.347 45.441 55z" fill="#ffffff" data-fill-palette-color="quaternary"></path><path d="M91.5 32H69c-0.542 0-1-0.458-1-1V8.5c0-2.206-1.794-4-4-4H36c-2.206 0-4 1.794-4 4V31c0 0.542-0.458 1-1 1H8.5c-2.206 0-4 1.794-4 4v28c0 2.206 1.794 4 4 4H31c0.542 0 1 0.458 1 1v22.5c0 2.206 1.794 4 4 4h28c2.206 0 4-1.794 4-4V69c0-0.542 0.458-1 1-1h22.5c2.206 0 4-1.794 4-4V36C95.5 33.794 93.706 32 91.5 32zM53.963 60.304c3.129 1.564 3.596 3.614 3.596 4.696s-0.467 3.132-3.596 4.696L51.5 70.928V80c0 0.828-0.671 1.5-1.5 1.5s-1.5-0.672-1.5-1.5v-7.572l-2.829 1.414C45.456 73.949 45.227 74 45.001 74c-0.55 0-1.08-0.304-1.343-0.829-0.37-0.741-0.07-1.643 0.671-2.013l4.171-2.085v-8.146l-2.463-1.231c-3.129-1.564-3.596-3.614-3.596-4.696s0.467-3.132 3.596-4.696l2.463-1.231v-8.145l-2.463-1.231c-3.129-1.564-3.596-3.614-3.596-4.696s0.467-3.131 3.596-4.696l2.463-1.231V17.5c0-0.829 0.671-1.5 1.5-1.5s1.5 0.671 1.5 1.5v10.073l2.829-1.415c0.743-0.368 1.642-0.07 2.013 0.671 0.37 0.741 0.07 1.642-0.671 2.013L51.5 30.927v8.146l2.463 1.231c3.129 1.564 3.596 3.614 3.596 4.696s-0.467 3.131-3.596 4.696L51.5 50.927v8.145L53.963 60.304z" fill="#ffffff" data-fill-palette-color="quaternary"></path></g></svg></g></svg></g><g></g></svg></g></svg></g></svg></g></svg></g><defs></defs></svg><rect width="333.90454557049503" height="333.90454557049503" fill="none" stroke="none" visibility="hidden"></rect></g></svg></g></svg>